<?xml version="1.0" encoding="utf-8"?>
<!-- Generator: Adobe Illustrator 28.7.1, SVG Export Plug-In . SVG Version: 9.03 Build 54978)  -->
<svg width="64" height="64" version="1.0" id="Layer_1" xmlns="http://www.w3.org/2000/svg" xmlns:xlink="http://www.w3.org/1999/xlink" x="0px" y="0px"
	 viewBox="0 0 64 64" style="enable-background:new 0 0 64 64;" xml:space="preserve">
<style type="text/css">
	.st0{fill:none;stroke:#231F20;stroke-width:2;stroke-linecap:round;stroke-linejoin:round;stroke-miterlimit:10;}
</style>
<g>
	<path class="st0" d="M41.8,21.4v-13c0-1.4-1.1-2.5-2.5-2.5H5C3.7,5.9,2.6,7,2.6,8.4v23.2c0,1.4,1.1,2.5,2.5,2.5h3.9v8.5l8.5-8.5
		h4.8"/>
	<path class="st0" d="M59,49.5c1.4,0,2.5-1.1,2.5-2.5V23.9c0-1.4-1.1-2.5-2.5-2.5H24.7c-1.4,0-2.5,1.1-2.5,2.5v23.2
		c0,1.4,1.1,2.5,2.5,2.5h21.9l8.5,8.5v-8.5H59z"/>
	<path class="st0" d="M48.8,37.9c0-2.5-2.1-4.6-4.6-4.6h-6.4c-2.5,0-4.6,2.1-4.6,4.6v5.8H43"/>
	<circle class="st0" cx="41" cy="29.4" r="3.9"/>
	<line class="st0" x1="48.8" y1="41.3" x2="48.8" y2="46.1"/>
	<line class="st0" x1="51.2" y1="43.7" x2="46.4" y2="43.7"/>
</g>
</svg>
