<?xml version="1.0" encoding="UTF-8"?>
<svg width="64" height="64" xmlns="http://www.w3.org/2000/svg" version="1.1" viewBox="0 0 64 64">
  <defs>
    <style>
      .cls-1 {
        fill: none;
        stroke: #231f20;
        stroke-linecap: round;
        stroke-linejoin: round;
        stroke-width: 2px;
      }
    </style>
  </defs>
  <!-- Generator: Adobe Illustrator 28.7.3, SVG Export Plug-In . SVG Version: 1.2.0 Build 164)  -->
  <g>
    <g id="Layer_1">
      <g>
        <path class="cls-1" d="M22.2,20.26c-2.46.26-4.38,2.35-4.38,4.88,0,.84.21,1.63.59,2.33.82,1.54,2.45,2.59,4.32,2.59"/>
        <path class="cls-1" d="M17.79,36.36h0c-1.52-.83-2.55-2.45-2.55-4.3,0-2.1,1.32-3.9,3.17-4.6"/>
        <path class="cls-1" d="M22.22,44.49c.31,2.41,2.37,4.27,4.87,4.27,2.71,0,4.91-2.2,4.91-4.91v-23.92c0-2.71-2.18-4.69-4.9-4.69s-4.91,2.2-4.91,4.91v.11c.03,1.42.66,2.69,1.65,3.56"/>
        <path class="cls-1" d="M25.46,42.47c-.88,1.25-2.33,2.07-3.98,2.08h-.04c-2.71,0-4.91-2.21-4.91-4.92,0-1.26.47-2.41,1.25-3.27h0c.9-1,2.2-1.64,3.66-1.64"/>
        <path class="cls-1" d="M41.8,20.26c2.46.26,4.38,2.35,4.38,4.88,0,.84-.21,1.63-.59,2.33-.82,1.54-2.45,2.59-4.32,2.59"/>
        <path class="cls-1" d="M46.21,36.36h0c1.52-.83,2.55-2.45,2.55-4.3,0-2.1-1.32-3.9-3.17-4.6"/>
        <path class="cls-1" d="M41.78,44.49c-.31,2.41-2.37,4.27-4.87,4.27-2.71,0-4.91-2.2-4.91-4.91v-23.92c0-2.71,2.18-4.69,4.9-4.69s4.91,2.2,4.91,4.91v.11c-.03,1.42-.66,2.69-1.65,3.56"/>
        <path class="cls-1" d="M38.54,42.47c.88,1.25,2.33,2.07,3.98,2.08h.04c2.71,0,4.91-2.21,4.91-4.92,0-1.26-.47-2.41-1.25-3.27h0c-.9-1-2.2-1.64-3.66-1.64"/>
        <polyline class="cls-1" points="29.6 12.47 29.6 8.71 25.74 8.71 32 2.36 38.26 8.71 34.4 8.71 34.4 12.47"/>
        <polyline class="cls-1" points="34.4 51.53 34.4 55.29 38.26 55.29 32 61.64 25.74 55.29 29.6 55.29 29.6 51.53"/>
        <polyline class="cls-1" points="51.53 29.6 55.29 29.6 55.29 25.74 61.64 32 55.29 38.26 55.29 34.4 51.53 34.4"/>
        <polyline class="cls-1" points="12.47 34.4 8.71 34.4 8.71 38.26 2.36 32 8.71 25.74 8.71 29.6 12.47 29.6"/>
      </g>
    </g>
  </g>
</svg>