<?xml version="1.0" encoding="utf-8"?>
<!-- Generator: Adobe Illustrator 28.0.0, SVG Export Plug-In . SVG Version: 6.00 Build 0)  -->
<svg width="64" height="64" version="1.1" id="Layer_1" xmlns="http://www.w3.org/2000/svg" xmlns:xlink="http://www.w3.org/1999/xlink" x="0px" y="0px"
	 viewBox="0 0 64 64" style="enable-background:new 0 0 64 64;" xml:space="preserve">
<style type="text/css">
	.st0{fill:none;stroke:#000000;stroke-width:2;stroke-linecap:round;stroke-linejoin:round;stroke-miterlimit:10;}
</style>
<g>
	<path class="st0" d="M32.9,11h-9.5c-2.9,0-5.2,2.3-5.2,5.2v1.1v3.8v3.5v3.8v3.5v3.8v3c0,2.9,2.3,5.2,5.2,5.2H34
		c2.9,0,5.3-2.3,5.3-5.2v-3v-3.8v-3.5v-3.8v-1.9"/>
	<path class="st0" d="M48.2,28.8v11.6c0,6.6-5.4,12-12,12H21.3c-6.6,0-12-5.4-12-12V28.8c0-1.2,1-2.2,2.2-2.2h0c1.2,0,2.2,1,2.2,2.2
		v11.1c0,4.5,3.7,8.2,8.2,8.2h13.6c4.5,0,8.2-3.7,8.2-8.2V28.8c0-1.2,1-2.2,2.2-2.2h0C47.2,26.5,48.2,27.5,48.2,28.8z"/>
	<line class="st0" x1="25.5" y1="58.2" x2="25.5" y2="52.3"/>
	<line class="st0" x1="32" y1="58.2" x2="32" y2="52.3"/>
	<path class="st0" d="M39.5,62.2H18c-1.1,0-2-0.9-2-2v0c0-1.1,0.9-2,2-2h21.5c1.1,0,2,0.9,2,2v0C41.5,61.3,40.6,62.2,39.5,62.2z"/>
	<path class="st0" d="M18.2,21.2h4.5c0.5,0,1-0.2,1.3-0.6c0.3-0.3,0.6-0.8,0.6-1.3c0-1-0.8-1.9-1.9-1.9h-4.5"/>
	<path class="st0" d="M18.2,28.4h4.5c0.5,0,1-0.2,1.3-0.6c0.3-0.3,0.6-0.8,0.6-1.3c0-1-0.8-1.9-1.9-1.9h-4.5"/>
	<path class="st0" d="M18.2,35.7h4.5c0.5,0,1-0.2,1.3-0.6c0.3-0.3,0.6-0.8,0.6-1.3c0-1-0.8-1.9-1.9-1.9h-4.5"/>
	<path class="st0" d="M39.3,28.4h-4.6c-0.5,0-1-0.2-1.3-0.6s-0.6-0.8-0.6-1.3c0-1,0.8-1.9,1.9-1.9h4.6"/>
	<path class="st0" d="M39.3,35.7h-4.6c-0.5,0-1-0.2-1.3-0.6c-0.3-0.3-0.6-0.8-0.6-1.3c0-1,0.8-1.9,1.9-1.9h4.6"/>
	<circle class="st0" cx="43.7" cy="12.8" r="11"/>
	<path class="st0" d="M49.5,16c-1.1,1.8-3,3-5.3,3c-3.4,0-6.2-2.8-6.2-6.2s2.8-6.2,6.2-6.2c2.2,0,4.2,1.2,5.3,3"/>
</g>
</svg>
