<?xml version="1.0" encoding="utf-8"?>
<!-- Generator: Adobe Illustrator 28.4.1, SVG Export Plug-In . SVG Version: 6.00 Build 0)  -->
<svg version="1.0" id="Layer_1" xmlns="http://www.w3.org/2000/svg" xmlns:xlink="http://www.w3.org/1999/xlink" x="0px" y="0px"
	 viewBox="0 0 64 64" style="enable-background:new 0 0 64 64;" xml:space="preserve">
<style type="text/css">
	.st0{fill:none;stroke:#231F20;stroke-width:2;stroke-linecap:round;stroke-linejoin:round;stroke-miterlimit:10;}
</style>
<g>
	<polygon class="st0" points="47.9,11.2 32,2.3 16.1,11.2 32,20.2 	"/>
	<path class="st0" d="M41.7,14.7v8.8c0,1.4-1.1,2.5-2.5,2.5H24.8c-1.4,0-2.5-1.1-2.5-2.5v-8.8"/>
	<line class="st0" x1="47.9" y1="11.2" x2="47.9" y2="24.7"/>
	<ellipse class="st0" cx="47.9" cy="27.1" rx="1.9" ry="2.5"/>
	<path class="st0" d="M32,26.1v35.6c0-3.9-3.5-7.1-7.7-7.1H5.4V20.3h16.9"/>
	<polyline class="st0" points="32,61.7 5.4,61.7 5.4,54.6 	"/>
	<line class="st0" x1="5.4" y1="58.2" x2="25.6" y2="58.2"/>
	<path class="st0" d="M41.7,20.3h6.2h10.6v34.4H39.7c-4.3,0-7.7,3.2-7.7,7.1V26.1"/>
	<polyline class="st0" points="32,61.7 58.6,61.7 58.6,54.6 	"/>
	<line class="st0" x1="58.6" y1="58.2" x2="38.4" y2="58.2"/>
	<line class="st0" x1="10.8" y1="33.6" x2="25.6" y2="33.6"/>
	<line class="st0" x1="37.8" y1="33.6" x2="52.7" y2="33.6"/>
	<line class="st0" x1="10.8" y1="48.9" x2="25.6" y2="48.9"/>
	<line class="st0" x1="37.8" y1="48.9" x2="52.7" y2="48.9"/>
	<line class="st0" x1="10.8" y1="41.2" x2="25.6" y2="41.2"/>
	<line class="st0" x1="37.8" y1="41.2" x2="52.7" y2="41.2"/>
</g>
</svg>
