<?xml version="1.0" encoding="utf-8"?>
<!-- Generator: Adobe Illustrator 28.5.0, SVG Export Plug-In . SVG Version: 9.03 Build 54727)  -->
<svg version="1.0" id="Layer_1" xmlns="http://www.w3.org/2000/svg" xmlns:xlink="http://www.w3.org/1999/xlink" x="0px" y="0px"
	 viewBox="0 0 64 64" style="enable-background:new 0 0 64 64;" xml:space="preserve">
<style type="text/css">
	.st0{fill:none;stroke:#231F20;stroke-width:2;stroke-linecap:round;stroke-linejoin:round;stroke-miterlimit:10;}
</style>
<g>
	<polyline class="st0" points="24.7,47.3 9.6,47.3 9.6,2.5 54.4,2.5 54.4,47.3 39.3,47.3 	"/>
	<path class="st0" d="M39.2,42.4h6c0-2.3,1.9-4.3,4.3-4.3V11.7c-2.3,0-4.3-1.9-4.3-4.3H18.8c0,2.4-1.9,4.3-4.3,4.3v26.4
		c2.3,0,4.3,1.9,4.3,4.3h6"/>
	<circle class="st0" cx="32" cy="44.9" r="7.7"/>
	<circle class="st0" cx="32" cy="44.9" r="3.7"/>
	<polyline class="st0" points="24.9,47.8 19.1,57 23.7,57.5 26.1,61.5 31.8,52.6 	"/>
	<polyline class="st0" points="39.1,47.8 44.9,57 40.3,57.5 37.9,61.5 32.2,52.6 	"/>
	<line class="st0" x1="25.4" y1="14.5" x2="38.5" y2="14.5"/>
	<line class="st0" x1="19.6" y1="20.3" x2="44.2" y2="20.3"/>
	<line class="st0" x1="21.1" y1="25.9" x2="42.8" y2="25.9"/>
	<line class="st0" x1="28.2" y1="31.6" x2="35.7" y2="31.6"/>
</g>
</svg>
