<?xml version="1.0" encoding="utf-8"?>
<!-- Generator: Adobe Illustrator 28.4.1, SVG Export Plug-In . SVG Version: 6.00 Build 0)  -->
<svg version="1.0" id="Layer_1" xmlns="http://www.w3.org/2000/svg" xmlns:xlink="http://www.w3.org/1999/xlink" x="0px" y="0px"
	 viewBox="0 0 64 64" style="enable-background:new 0 0 64 64;" xml:space="preserve">
<style type="text/css">
	.st0{fill:none;stroke:#231F20;stroke-width:2;stroke-linecap:round;stroke-linejoin:round;stroke-miterlimit:10;}
</style>
<g>
	<polyline class="st0" points="49.7,54.6 49.7,60.4 9.3,60.4 9.3,3.6 38.9,3.6 	"/>
	<line class="st0" x1="49.7" y1="37.2" x2="49.7" y2="14.4"/>
	<polyline class="st0" points="38.9,3.6 38.9,14.4 49.7,14.4 	"/>
	<line class="st0" x1="38.9" y1="3.6" x2="49.7" y2="14.4"/>
	<circle class="st0" cx="33.7" cy="30.4" r="11.5"/>
	<path class="st0" d="M43.3,36.8l10.7,10.8c0.9,0.9,0.9,2.3,0,3.2h0c-0.9,0.9-2.3,0.9-3.2,0L40.1,40"/>
	<line class="st0" x1="14.1" y1="52.5" x2="39.9" y2="52.5"/>
	<line class="st0" x1="14.1" y1="44.1" x2="26" y2="44.1"/>
	<line class="st0" x1="14.1" y1="20.9" x2="20.7" y2="20.9"/>
	<line class="st0" x1="14.1" y1="26.4" x2="18.4" y2="26.4"/>
	<line class="st0" x1="14.1" y1="32.5" x2="18.4" y2="32.5"/>
	<line class="st0" x1="14.1" y1="38.3" x2="20.1" y2="38.3"/>
	<line class="st0" x1="28" y1="30.4" x2="28" y2="33.6"/>
	<line class="st0" x1="31.8" y1="29.1" x2="31.8" y2="33.6"/>
	<line class="st0" x1="35.6" y1="27.1" x2="35.6" y2="33.6"/>
	<line class="st0" x1="39.4" y1="24.2" x2="39.4" y2="33.7"/>
	<rect x="14.1" y="11.4" class="st0" width="15.4" height="3.9"/>
</g>
</svg>
