<?xml version="1.0" encoding="UTF-8"?>
<svg width="64" height="64" xmlns="http://www.w3.org/2000/svg" version="1.1" viewBox="0 0 64 64">
  <defs>
    <style>
      .cls-1 {
        fill: none;
        stroke: #231f20;
        stroke-linecap: round;
        stroke-linejoin: round;
        stroke-width: 2px;
      }
    </style>
  </defs>
  <!-- Generator: Adobe Illustrator 28.7.3, SVG Export Plug-In . SVG Version: 1.2.0 Build 164)  -->
  <g>
    <g id="Layer_1">
      <g>
        <rect class="cls-1" x="45.81" y="29.87" width="7.3" height="27.59"/>
        <rect class="cls-1" x="34.17" y="37.94" width="7.3" height="19.52"/>
        <rect class="cls-1" x="22.53" y="33.73" width="7.3" height="23.73"/>
        <rect class="cls-1" x="10.89" y="37.94" width="7.3" height="19.52"/>
        <line class="cls-1" x1="24.49" y1="23.83" x2="16.29" y2="31.16"/>
        <line class="cls-1" x1="47.85" y1="21.17" x2="39.45" y2="30.05"/>
        <line class="cls-1" x1="36" y1="30.28" x2="27.95" y2="23.76"/>
        <circle class="cls-1" cx="14.54" cy="32.73" r="2.36"/>
        <circle class="cls-1" cx="26.18" cy="22.2" r="2.36"/>
        <circle class="cls-1" cx="37.82" cy="31.76" r="2.36"/>
        <circle class="cls-1" cx="49.46" cy="19.46" r="2.36"/>
        <rect class="cls-1" x="2.78" y="2.46" width="58.43" height="59.09" rx="3.03" ry="3.03"/>
        <line class="cls-1" x1="2.78" y1="12.92" x2="61.22" y2="12.92"/>
        <line class="cls-1" x1="51.3" y1="7.54" x2="56.11" y2="7.54"/>
        <line class="cls-1" x1="42.29" y1="7.54" x2="47.1" y2="7.54"/>
      </g>
    </g>
  </g>
</svg>